<?xml version="1.0" encoding="UTF-8" standalone="no"?>
<svg width="16px" height="16px" viewBox="0 0 16 16" version="1.1" xmlns="http://www.w3.org/2000/svg" xmlns:xlink="http://www.w3.org/1999/xlink">
    <!-- Generator: Sketch 39.1 (31720) - http://www.bohemiancoding.com/sketch -->
    <title>Arrow</title>
    <desc>Created with Sketch.</desc>
    <defs></defs>
    <g id="Breakpoints" stroke="none" stroke-width="1" fill="none" fill-rule="evenodd">
        <g id="LP-1440-D1" transform="translate(-1113.000000, -5626.000000)" fill="#4285F4">
            <g id="ChromeCast" transform="translate(-13.000000, 4630.000000)">
                <g id="CTA" transform="translate(865.000000, 980.000000)">
                    <g id="Text-CTA" transform="translate(163.000000, 16.000000)">
                        <path d="M105.829926,-1.77635684e-15 C101.505481,-1.77635684e-15 98,3.50548148 98,7.82992593 C98,12.1543704 101.505481,15.6601481 105.829926,15.6601481 C110.15437,15.6601481 113.659852,12.1543704 113.659852,7.82992593 C113.659852,3.50548148 110.15437,-1.77635684e-15 105.829926,-1.77635684e-15 L105.829926,-1.77635684e-15 Z M105.829926,12.5706667 L104.992,11.7327407 L108.302222,8.42251852 L101.089185,8.42251852 L101.089185,7.23733333 L108.302222,7.23733333 L104.992,3.92711111 L105.829926,3.08918519 L110.570667,7.82992593 L105.829926,12.5706667 L105.829926,12.5706667 Z" id="Arrow"></path>
                    </g>
                </g>
            </g>
        </g>
    </g>
</svg>