<?xml version="1.0" encoding="UTF-8" standalone="no"?>
<svg width="21px" height="30px" viewBox="0 0 21 30" version="1.1" xmlns="http://www.w3.org/2000/svg" xmlns:xlink="http://www.w3.org/1999/xlink">
    <!-- Generator: Sketch 40 (33762) - http://www.bohemiancoding.com/sketch -->
    <title>Icon</title>
    <desc>Created with Sketch.</desc>
    <defs></defs>
    <g id="Breakpoints" stroke="none" stroke-width="1" fill="none" fill-rule="evenodd">
        <g id="made-by-google/Phone/1024/1" transform="translate(-582.000000, -5974.000000)" fill="#888B8D">
            <g id="Switch" transform="translate(-51.000000, 5843.000000)">
                <g id="Keypoints" transform="translate(633.000000, 120.000000)">
                    <path d="M14.4339623,25.1509434 L15.8490566,25.1509434 L15.8490566,27.9811321 L11.6037736,27.9811321 L11.6037736,16.6603774 L14.4339623,16.6603774 L10.1886792,11 L5.94339623,16.6603774 L8.77358491,16.6603774 L8.77358491,27.9811321 L4.52830189,27.9811321 L4.52830189,25.0518868 C5.51886792,24.5283019 6.22641509,23.5235849 6.22641509,22.3207547 C6.22641509,20.6084906 4.8254717,19.2075472 3.11320755,19.2075472 C1.4009434,19.2075472 3.55271368e-15,20.6084906 3.55271368e-15,22.3207547 C3.55271368e-15,23.5235849 0.70754717,24.5283019 1.69811321,25.0518868 L1.69811321,27.9811321 C1.69811321,29.5518868 2.95754717,30.8113208 4.52830189,30.8113208 L8.77358491,30.8113208 L8.77358491,35.1273585 C7.76886792,35.6509434 7.0754717,36.6839623 7.0754717,37.8867925 C7.0754717,39.6132075 8.47641509,41 10.1886792,41 C11.9009434,41 13.3018868,39.6132075 13.3018868,37.8867925 C13.3018868,36.6839623 12.6084906,35.6509434 11.6037736,35.1273585 L11.6037736,30.8113208 L15.8490566,30.8113208 C17.4198113,30.8113208 18.6792453,29.5518868 18.6792453,27.9811321 L18.6792453,25.1509434 L20.0943396,25.1509434 L20.0943396,19.490566 L14.4339623,19.490566 L14.4339623,25.1509434 Z" id="Icon"></path>
                </g>
            </g>
        </g>
    </g>
</svg>