<?xml version="1.0" encoding="UTF-8" standalone="no"?>
<svg width="28px" height="28px" viewBox="0 0 28 28" version="1.1" xmlns="http://www.w3.org/2000/svg" xmlns:xlink="http://www.w3.org/1999/xlink">
    <!-- Generator: Sketch 40 (33762) - http://www.bohemiancoding.com/sketch -->
    <title>Icon</title>
    <desc>Created with Sketch.</desc>
    <defs></defs>
    <g id="Breakpoints" stroke="none" stroke-width="1" fill="none" fill-rule="evenodd">
        <g id="made-by-google/Phone/1024/1" transform="translate(-582.000000, -6111.000000)" fill="#888B8D">
            <g id="Switch" transform="translate(-51.000000, 5843.000000)">
                <g id="Keypoints" transform="translate(633.000000, 120.000000)">
                    <path d="M14,148 C6.265,148 0,154.265 0,162 C0,169.735 6.265,176 14,176 C21.735,176 28,169.735 28,162 C28,154.265 21.735,148 14,148 L14,148 Z M13.5333333,152.242424 C15.8503333,152.242424 17.7333333,154.125424 17.7333333,156.442424 C17.7333333,158.766424 15.8503333,160.642424 13.5333333,160.642424 C11.2163333,160.642424 9.33333333,158.766424 9.33333333,156.442424 C9.33333333,154.125424 11.2163333,152.242424 13.5333333,152.242424 L13.5333333,152.242424 Z M13.4909091,172.092727 C9.98390909,172.092727 6.90390909,170.300727 5.09090909,167.584727 C5.12590909,164.805727 10.6979091,163.272727 13.4909091,163.272727 C16.2839091,163.272727 21.8489091,164.805727 21.8909091,167.584727 C20.0779091,170.300727 16.9979091,172.092727 13.4909091,172.092727 L13.4909091,172.092727 Z" id="Icon"></path>
                </g>
            </g>
        </g>
    </g>
</svg>