<?xml version="1.0" encoding="UTF-8" standalone="no"?>
<svg width="24px" height="32px" viewBox="0 0 24 32" version="1.1" xmlns="http://www.w3.org/2000/svg" xmlns:xlink="http://www.w3.org/1999/xlink">
    <!-- Generator: Sketch 40 (33762) - http://www.bohemiancoding.com/sketch -->
    <title>Icon</title>
    <desc>Created with Sketch.</desc>
    <defs></defs>
    <g id="Breakpoints" stroke="none" stroke-width="1" fill="none" fill-rule="evenodd">
        <g id="made-by-google/Phone/1024/1" transform="translate(-583.000000, -6219.000000)" fill="#888B8D">
            <g id="Switch" transform="translate(-51.000000, 5843.000000)">
                <g id="Keypoints" transform="translate(633.000000, 120.000000)">
                    <path d="M12.6363636,260.363636 L12.6363636,256 L6.81818182,261.818182 L12.6363636,267.636364 L12.6363636,263.272727 C17.4509091,263.272727 21.3636364,267.185455 21.3636364,272 C21.3636364,273.469091 21,274.865455 20.3454545,276.072727 L22.4690909,278.196364 C23.6036364,276.407273 24.2727273,274.283636 24.2727273,272 C24.2727273,265.570909 19.0654545,260.363636 12.6363636,260.363636 L12.6363636,260.363636 Z M12.6363636,280.727273 C7.82181818,280.727273 3.90909091,276.814545 3.90909091,272 C3.90909091,270.530909 4.27272727,269.134545 4.92727273,267.927273 L2.80363636,265.803636 C1.66909091,267.592727 1,269.716364 1,272 C1,278.429091 6.20727273,283.636364 12.6363636,283.636364 L12.6363636,288 L18.4545455,282.181818 L12.6363636,276.363636 L12.6363636,280.727273 L12.6363636,280.727273 Z" id="Icon"></path>
                </g>
            </g>
        </g>
    </g>
</svg>