<?xml version="1.0" encoding="utf-8"?>
<!-- Generator: Adobe Illustrator 19.1.0, SVG Export Plug-In . SVG Version: 6.00 Build 0)  -->
<svg version="1.1" id="all" xmlns="http://www.w3.org/2000/svg" xmlns:xlink="http://www.w3.org/1999/xlink" x="0px" y="0px"
	 viewBox="0 0 97.2 97.2" style="enable-background:new 0 0 97.2 97.2;" xml:space="preserve">
<style type="text/css">
	.st0{fill:#CECECC;}
	.st1{clip-path:url(#SVGID_2_);}
	.st2{fill:url(#SVGID_3_);}
	.st3{fill:#FFFFFF;}
	.st4{fill:#4284F3;}
</style>
<g id="New_Symbol_1">
</g>
<g>
	<circle class="st0" cx="48.6" cy="48.6" r="48.6"/>
</g>
<g>
	<defs>
		<circle id="SVGID_1_" cx="48.6" cy="48.6" r="48.6"/>
	</defs>
	<clipPath id="SVGID_2_">
		<use xlink:href="#SVGID_1_"  style="overflow:visible;"/>
	</clipPath>
	<g class="st1">
		<linearGradient id="SVGID_3_" gradientUnits="userSpaceOnUse" x1="89.8571" y1="89.5886" x2="26.3837" y2="26.1151">
			<stop  offset="0" style="stop-color:#333333;stop-opacity:0"/>
			<stop  offset="1" style="stop-color:#333333;stop-opacity:0.2"/>
		</linearGradient>
		<path class="st2" d="M74.1,30.5c-0.9-0.9-3.2-1.5-3.2-1.5H51.4l-7.6-7.4L27,22c-2.7,0-5,1.9-5,4.6v36.6c0,1.5,0.7,2.8,1.5,3.7
			l46.8,46.4l44.7-42.1L74.1,30.5z"/>
		<g>
			<path class="st3" d="M70.6,29H46.2l-2.4-7.3H26.6c-2.7,0-4.9,2.2-4.9,4.9v36.6c0,2.7,2.2,4.9,4.9,4.9h19.5l2.4,7.3h22
				c2.7,0,4.9-2.2,4.9-4.9V33.9C75.4,31.2,73.3,29,70.6,29z"/>
			<g>
				<path class="st4" d="M70.6,29H46.2l-2.4-7.3H26.6c-2.7,0-4.9,2.2-4.9,4.9v36.6c0,2.7,2.2,4.9,4.9,4.9h19.5l2.4,7.3h22
					c2.7,0,4.9-2.2,4.9-4.9V33.9C75.4,31.2,73.3,29,70.6,29z M36.4,58.3c-6.7,0-12.2-5.5-12.2-12.2s5.5-12.2,12.2-12.2
					c3.3,0,6.1,1.2,8.2,3.2l-3.2,3.1c-0.9-0.9-2.5-1.9-5-1.9c-4.2,0-7.7,3.5-7.7,7.8s3.4,7.8,7.7,7.8c4.9,0,6.9-3.5,7.1-5.9h-7.1
					v-4.2h11.4c0.2,0.8,0.3,1.5,0.3,2.5C48.1,53.3,43.5,58.3,36.4,58.3z M51.5,45h9c-1,3.1-2.7,5.9-5,8.5c-0.8-0.9-1.5-1.8-2.1-2.7
					L51.5,45z M71.8,69.2c0,1.3-1.1,2.4-2.4,2.4H53.5l4.9-6.1L55.8,58l7.6,7.6l2.2-2.2l-8.1-7.9l0,0c2.8-3.1,4.7-6.6,5.9-10.3h4.6
					v-3.2H57.1v-3.1h-3.1v3.1h-3.5l-3.1-9.3h22.1c1.3,0,2.4,1.1,2.4,2.4V69.2z"/>
			</g>
		</g>
	</g>
</g>
</svg>
