<?xml version="1.0" encoding="UTF-8" standalone="no"?>
<svg width="28px" height="20px" viewBox="0 0 28 20" version="1.1" xmlns="http://www.w3.org/2000/svg" xmlns:xlink="http://www.w3.org/1999/xlink">
    <!-- Generator: Sketch 39.1 (31720) - http://www.bohemiancoding.com/sketch -->
    <title>Fill 1</title>
    <desc>Created with Sketch.</desc>
    <defs></defs>
    <g id="Page-1" stroke="none" stroke-width="1" fill="none" fill-rule="evenodd">
        <g id="Artboard" transform="translate(-150.000000, -537.000000)" fill="#4285F4">
            <g id="Hero" transform="translate(147.000000, 44.000000)">
                <g id="Watch-CTA" transform="translate(3.000000, 493.000000)">
                    <path d="M11.165,14.1180131 L11.165,5.8715651 L18.6666667,10.1536009 L11.165,14.1180131 Z M27.6966667,4.2363921 C27.6966667,4.2363921 27.4283333,2.2953594 26.5883333,1.44836331 C25.5266667,0.319035193 24.3366667,0.319035193 23.7883333,0.248452186 C19.88,-0.0338798435 14,0.00141166015 14,0.00141166015 C14,0.00141166015 8.14333333,-0.0338798435 4.235,0.248452186 C3.69833333,0.319035193 2.50833333,0.319035193 1.44666667,1.44836331 C0.606666667,2.2953594 0.326666667,4.2363921 0.326666667,4.2363921 C0.326666667,4.2363921 0.0466666667,6.53033983 0,8.8007599 L0,11.1770545 C0.0466666667,13.4592384 0.326666667,15.7296585 0.326666667,15.7296585 C0.326666667,15.7296585 0.606666667,17.6706912 1.44666667,18.5294511 C2.50833333,19.6470154 3.89666667,19.6117239 4.52666667,19.7293622 C6.72,19.9528751 13.755,19.9999304 14,19.9999304 C14,19.9999304 19.8916667,20.0116942 23.8,19.7293622 C24.3366667,19.6587792 25.5266667,19.6587792 26.5883333,18.5294511 C27.4283333,17.682455 27.7083333,15.7414223 27.7083333,15.7414223 C27.7083333,15.7414223 27.9883333,13.4592384 28,11.1888183 L28,8.81252374 C27.9766667,6.53033983 27.6966667,4.2363921 27.6966667,4.2363921 L27.6966667,4.2363921 Z" id="Fill-1"></path>
                </g>
            </g>
        </g>
    </g>
</svg>